<svg width="94" height="24" viewBox="0 0 94 24" fill="none" xmlns="http://www.w3.org/2000/svg">
<path d="M37.7607 8.35418L36.6373 9.55418C35.8578 8.79264 35.0324 8.35418 33.909 8.35418C31.9602 8.35418 30.4929 9.90033 30.4929 12.0696C30.4929 14.2388 31.9602 15.7849 33.909 15.7849C34.9636 15.7849 35.9724 15.3465 36.7061 14.5849L37.7607 15.7849C36.8436 16.8465 35.5368 17.4003 34.0007 17.4003C30.7909 17.4003 28.7046 15.0926 28.7046 12.0696C28.7046 8.97726 30.7909 6.66956 34.0007 6.66956C35.4451 6.64649 36.8207 7.26956 37.7607 8.35418Z" fill="white"/>
<path d="M50.3015 12.0699C50.3015 15.093 48.0088 17.4007 44.9366 17.4007C41.7956 17.4007 39.5029 15.093 39.5029 12.0699C39.5029 8.97761 41.7956 6.66992 44.9366 6.66992C48.0088 6.66992 50.3015 8.97761 50.3015 12.0699ZM41.3141 12.0699C41.3141 14.2392 42.8502 15.7853 44.9366 15.7853C46.9541 15.7853 48.4902 14.2392 48.4902 12.0699C48.4902 9.90069 46.9541 8.35454 44.9366 8.35454C42.8502 8.35454 41.3141 9.90069 41.3141 12.0699Z" fill="white"/>
<path d="M57.8448 17.1924H55.7355L51.4253 6.94629H53.3741L56.7902 15.4386L60.2063 6.94629H62.0863L57.8448 17.1924Z" fill="white"/>
<path d="M73.0909 12.0003V12.6926H65.0665C65.2729 14.7926 66.7402 15.8541 68.4826 15.8541C69.6519 15.8772 70.7982 15.4387 71.6924 14.6541L72.6095 15.8541C71.3485 17.0541 69.9499 17.4233 68.4138 17.4233C65.3416 17.4233 63.1865 15.3233 63.1865 12.0926C63.1865 8.93102 65.3416 6.69256 68.2763 6.69256C71.0733 6.66948 73.0909 8.90794 73.0909 12.0003ZM65.0894 11.2156H71.3714C71.1651 9.46179 69.9729 8.26179 68.2992 8.26179C66.488 8.28487 65.3646 9.46179 65.0894 11.2156Z" fill="white"/>
<path d="M86.2053 12.0699C86.2053 15.093 83.9126 17.4007 80.8404 17.4007C77.6994 17.4007 75.4067 15.093 75.4067 12.0699C75.4067 8.97761 77.6994 6.66992 80.8404 6.66992C83.8897 6.66992 86.2053 8.97761 86.2053 12.0699ZM77.218 12.0699C77.218 14.2392 78.7541 15.7853 80.8404 15.7853C82.858 15.7853 84.3941 14.2392 84.3941 12.0699C84.3941 9.90069 82.858 8.35454 80.8404 8.35454C78.7311 8.35454 77.218 9.90069 77.218 12.0699Z" fill="white"/>
<path d="M20.1986 3.43846C18.2268 1.47692 15.659 0.276923 12.8849 0C12.6786 0 12.5181 0.184615 12.5181 0.415385C12.5181 0.507692 12.541 0.576923 12.6098 0.646154L16.92 4.91538C16.92 4.98462 16.92 4.98462 16.8512 4.98462C15.659 4.10769 14.2605 3.57692 12.8161 3.43846C12.6786 3.41538 12.5639 3.50769 12.541 3.64615C12.541 3.71538 12.5639 3.78462 12.6098 3.85385L15.5444 6.80769C15.5444 6.80769 15.5444 6.87692 15.4756 6.80769C14.6732 6.3 13.779 5.97692 12.8161 5.88462C12.6786 5.88462 12.6098 6.02308 12.6786 6.16154L17.6307 11.1462C17.7683 11.2846 17.9747 11.1462 17.9059 11.0077C17.8371 10.0615 17.5161 9.13846 16.9888 8.33077C16.92 8.33077 16.9888 8.26154 16.9888 8.33077L19.8547 11.1462C19.9922 11.2846 20.2673 11.1462 20.2673 10.9385C20.1068 9.46154 19.5795 8.03077 18.7312 6.80769C18.6625 6.80769 18.7312 6.73846 18.7312 6.80769L23.0644 11.0769C23.179 11.2154 23.3625 11.2385 23.5 11.1462C23.6147 11.0769 23.6605 10.9385 23.6147 10.8C23.3625 8.00769 22.1473 5.4 20.1986 3.43846Z" fill="#00ADFF"/>
<path d="M3.4161 3.43846C5.41073 1.5 7.97854 0.276923 10.7298 0C10.9361 0 11.0966 0.138462 11.1195 0.346154C11.1195 0.438462 11.0966 0.553846 11.0049 0.623077L6.76341 4.91538C6.69463 4.98461 6.76341 4.98462 6.76341 4.98462C7.97854 4.10769 9.4 3.57692 10.8673 3.43846C11.0737 3.43846 11.2112 3.71538 11.0737 3.85385L8.16195 6.80769C8.09317 6.80769 8.16195 6.87692 8.16195 6.80769C8.96439 6.3 9.85854 6 10.8215 5.88461C10.959 5.88461 11.0966 6.02308 10.959 6.16154L5.9839 11.1462C5.84634 11.2846 5.70878 11.1462 5.70878 11.0077C5.80049 10.0615 6.14439 9.13846 6.69463 8.33077C6.69463 8.33077 6.62585 8.26154 6.62585 8.33077L3.82878 11.1462C3.62244 11.2846 3.34732 11.1462 3.4161 10.9385C3.55366 9.43846 4.08098 8.00769 4.9522 6.80769C4.9522 6.80769 4.88341 6.73846 4.88341 6.80769L0.619024 11.0769C0.343902 11.3538 0 11.1462 0 10.8C0.275122 8.03077 1.49024 5.44615 3.4161 3.43846Z" fill="#F05245"/>
<path d="M3.4161 20.4925C5.36488 22.4772 7.95561 23.7002 10.7298 23.931C10.9132 23.9541 11.0737 23.8387 11.0966 23.6541C11.1195 23.5387 11.0737 23.4464 11.0049 23.3541L6.76341 19.0156C6.69463 19.0156 6.76341 18.9464 6.76341 19.0156C7.97854 19.8925 9.4 20.4233 10.8673 20.5387C11.0737 20.5387 11.2112 20.2618 11.0737 20.1233L8.16195 17.1925C8.09317 17.1233 8.16195 17.1233 8.16195 17.1233C8.94146 17.6541 9.85854 18.0002 10.7985 18.0925C10.9361 18.0925 11.0737 17.8849 10.9361 17.8156L5.9839 12.831C5.84634 12.6925 5.70878 12.7618 5.70878 12.9695C5.80049 13.9156 6.14439 14.8387 6.69463 15.6464C6.69463 15.6464 6.62585 15.7156 6.62585 15.6464L3.82878 12.831C3.62244 12.6925 3.34732 12.7618 3.4161 13.0387C3.55366 14.5156 4.08098 15.9233 4.9522 17.1002C4.9522 17.1464 4.92927 17.1695 4.88341 17.1695L0.619024 12.831C0.458537 12.6925 0.206341 12.7387 0.0917073 12.9002C0.0458537 12.9695 0.0229268 13.0387 0 13.131C0.252195 15.9002 1.46732 18.5079 3.4161 20.4925Z" fill="#1CEBCF"/>
<path d="M20.1985 20.492C18.2497 22.4997 15.659 23.7228 12.8848 23.9305C12.6097 23.9997 12.4034 23.5843 12.6097 23.3766L16.9199 19.0382C16.9199 19.0382 16.9199 18.9689 16.8512 19.0382C15.659 19.9151 14.2604 20.4459 12.816 20.5843C12.6785 20.6074 12.5639 20.492 12.5409 20.3535C12.5409 20.2843 12.5638 20.2151 12.6097 20.1459L15.5443 17.192C15.5443 17.1228 15.5443 17.1228 15.4756 17.1228C14.696 17.6766 13.779 18.0228 12.839 18.092C12.7243 18.0689 12.6556 17.9766 12.6785 17.8843C12.6785 17.8612 12.6785 17.8382 12.7014 17.8151L17.6536 12.8305C17.7912 12.692 17.9975 12.7612 17.9287 12.9689C17.8599 13.9151 17.539 14.8382 17.0117 15.6459C16.9429 15.6459 17.0117 15.7151 17.0117 15.6459L19.8775 12.8305C19.9692 12.7382 20.1297 12.7382 20.2214 12.8305C20.2673 12.8766 20.2902 12.9689 20.2902 13.0382C20.1297 14.492 19.6024 15.8997 18.7541 17.0997C18.6853 17.1689 18.7541 17.1689 18.7541 17.1689L23.0643 12.8305C23.2707 12.6228 23.6834 12.8305 23.6146 13.1074C23.3853 15.8997 22.1702 18.5074 20.1985 20.492Z" fill="#FFE300"/>
<path opacity="0.87" d="M89.5979 7.36167V9.92321H89.1623V7.36167H88.3599V6.94629H90.4233V7.36167H89.5979Z" fill="white"/>
<path opacity="0.87" d="M93.4725 9.92357V7.93896L92.7847 9.36973H92.4637L91.7759 7.93896V9.92357H91.3174V6.96973H91.7759L92.6242 8.81588L93.4725 6.96973H93.9081V9.92357H93.4725Z" fill="white"/>
</svg>
