<svg width="16" height="16" viewBox="0 0 16 16" fill="none" xmlns="http://www.w3.org/2000/svg">
<circle cx="8.5" cy="8" r="6.5" stroke="#1372EC" stroke-linecap="round"/>
<path d="M8.50049 9.5V8.98426C8.50632 8.8426 8.52381 8.72159 8.55296 8.62125C8.58212 8.5209 8.62293 8.42941 8.67541 8.34678C8.72789 8.25824 8.79203 8.1756 8.86783 8.09887C8.94363 8.02213 9.0311 7.9336 9.13022 7.83325C9.22935 7.73291 9.32556 7.63551 9.41885 7.54107C9.51215 7.44073 9.59378 7.33448 9.66375 7.22233C9.73372 7.10428 9.78912 6.97737 9.82993 6.84161C9.87658 6.70585 9.8999 6.54943 9.8999 6.37236C9.8999 6.19528 9.86492 6.0241 9.79495 5.85883C9.73081 5.69356 9.6346 5.54894 9.50632 5.42499C9.37804 5.29513 9.21769 5.19183 9.02527 5.1151C8.83868 5.03837 8.62585 5 8.38678 5C8.14772 5 7.94072 5.03542 7.76579 5.10625C7.5967 5.17118 7.45092 5.25381 7.32847 5.35416C7.21186 5.4486 7.11856 5.54894 7.04859 5.65519C6.98445 5.76144 6.93489 5.85293 6.8999 5.92966" stroke="#1372EC" stroke-linecap="round" stroke-linejoin="round"/>
<rect x="8.75" y="11.75" width="0.5" height="0.5" rx="0.25" transform="rotate(180 8.75 11.75)" stroke="#1372EC" stroke-width="0.5"/>
</svg>
